<svg class="games-menu__item-icon" height="19" width="19" xmlns="http://www.w3.org/2000/svg"><g fill="none" fill-rule="evenodd"><path class="games-menu__item-icon-accent" d="M17.7282 9.6448c0 4.464-3.619 8.083-8.083 8.083-4.465 0-8.084-3.619-8.084-8.083s3.619-8.083 8.084-8.083c4.464 0 8.083 3.619 8.083 8.083" fill="#fff"/><g class="games-menu__item-icon-base" fill="#231f20"><path d="M16.8459 13.3041c-.139-.047-.285-.073-.437-.049l-2.676.424c-.403.064-.719.38-.783.783l-.424 2.676c-.003.018 0 .035 0 .052-.896.342-1.865.538-2.881.538-1.109 0-2.164-.224-3.126-.628l-.418-2.638c-.064-.403-.38-.719-.783-.783l-2.676-.424c-.075-.012-.149-.007-.221 0-.545-1.087-.859-2.311-.859-3.61 0-.084.01-.166.012-.249.015-.004.03-.007.044-.014l2.43-1.199c.366-.181.574-.576.515-.98l-.389-2.682c-.032-.214-.147-.392-.298-.533.783-.799 1.731-1.432 2.789-1.852.061.102.133.198.234.271l2.193 1.593c.33.24.776.24 1.106 0l2.193-1.593c.1-.073.172-.169.234-.271 1.055.419 2.002 1.05 2.784 1.846-.154.142-.271.322-.303.539l-.389 2.682c-.059.404.149.799.515.98l2.43 1.199c.017.009.036.012.054.017.002.082.012.163.012.246 0 1.318-.322 2.559-.882 3.659M9.6449.2971c-5.162 0-9.347 4.185-9.347 9.348 0 5.162 4.185 9.347 9.347 9.347s9.347-4.185 9.347-9.347c0-5.163-4.185-9.348-9.347-9.348"/><path d="M10.1913 6.739c-.19-.099-.36-.153-.54-.153-.179 0-.361.055-.553.153 0 0-1.513.808-2.192 1.593-.24.276-.359.717-.342 1.052.048.971.535 2.155.837 2.578.259.362.582.609.896.65.507.067.954.089 1.341.092H9.6513c.387-.003.834-.025 1.342-.092.313-.041.636-.288.895-.65.303-.423.789-1.607.837-2.578.017-.335-.102-.776-.342-1.052-.679-.785-2.192-1.593-2.192-1.593"/></g></g></svg>