<svg version="1.1" id="Capa_1" xmlns="http://www.w3.org/2000/svg" x="0" y="0" viewBox="0 0 468.7 468.7" xml:space="preserve"><path d="M449.35 0h-430c-6.6 0-12 5.4-12 12s5.4 12 12 12h25.9v432.4c0 4.4 2.4 8.5 6.3 10.6s8.6 1.9 12.3-.6l52.1-34.7 52.3 34.8c4 2.7 9.3 2.7 13.3 0l52.1-34.7 52.3 34.8c4 2.7 9.3 2.7 13.3 0l52.1-34.7 52.3 34.8c2 1.3 4.3 2 6.6 2 1.9 0 3.9-.5 5.7-1.4 3.9-2.1 6.3-6.2 6.3-10.6l-.2-432.4h27.3c6.6 0 12-5.4 12-12s-5.4-12.3-12-12.3zm-51 434l-40.3-26.8c-4-2.7-9.3-2.7-13.3 0l-52.1 34.8-52.3-34.8c-4-2.7-9.3-2.7-13.3 0l-52.1 34.7-52.3-34.7c-4-2.7-9.3-2.7-13.3 0l-40.1 26.7v-410h329l.1 410.1z"/><path d="M124.45 191.6h125.7c6.6 0 12-5.4 12-12s-5.4-12-12-12h-125.7c-6.6 0-12 5.4-12 12s5.3 12 12 12zm0 41.7h94.2c6.6 0 12-5.4 12-12s-5.4-12-12-12h-94.2c-6.6 0-12 5.4-12 12s5.3 12 12 12zm188.5-41.7h31.4c6.6 0 12-5.4 12-12s-5.4-12-12-12h-31.4c-6.6 0-12 5.4-12 12s5.3 12 12 12zm0 41.7h31.4c6.6 0 12-5.4 12-12s-5.4-12-12-12h-31.4c-6.6 0-12 5.4-12 12s5.3 12 12 12zm-188.5-138h125.7c6.6 0 12-5.4 12-12s-5.4-12-12-12h-125.7c-6.6 0-12 5.4-12 12s5.3 12 12 12zm0 41.6h94.2c6.6 0 12-5.4 12-12s-5.4-12-12-12h-94.2c-6.6 0-12 5.4-12 12s5.3 12 12 12zm188.5-41.6h31.4c6.6 0 12-5.4 12-12s-5.4-12-12-12h-31.4c-6.6 0-12 5.4-12 12s5.3 12 12 12zm0 41.6h31.4c6.6 0 12-5.4 12-12s-5.4-12-12-12h-31.4c-6.6 0-12 5.4-12 12s5.3 12 12 12zm-188.5 152.2h125.7c6.6 0 12-5.4 12-12s-5.4-12-12-12h-125.7c-6.6 0-12 5.4-12 12s5.3 12 12 12zm0 41.6h94.2c6.6 0 12-5.4 12-12s-5.4-12-12-12h-94.2c-6.6 0-12 5.4-12 12s5.3 12 12 12zm188.5-41.6h31.4c6.6 0 12-5.4 12-12s-5.4-12-12-12h-31.4c-6.6 0-12 5.4-12 12s5.3 12 12 12zm0 41.6h31.4c6.6 0 12-5.4 12-12s-5.4-12-12-12h-31.4c-6.6 0-12 5.4-12 12s5.3 12 12 12z"/></svg>