<svg version="1.1" id="Capa_1" xmlns="http://www.w3.org/2000/svg" x="0" y="0" viewBox="0 0 404.16 404.16" xml:space="preserve"><path d="M234.514 374.811a8.127 8.127 0 008.129 8.129h122.595a8.126 8.126 0 008.129-8.129V214.394c0-4.495-3.642-8.129-8.129-8.129s-8.129 3.633-8.129 8.129v152.289H250.771v-84.838a8.127 8.127 0 00-8.129-8.129h-79.758a8.126 8.126 0 00-8.129 8.129v86.667H47.053V203.445c0-4.495-3.642-8.129-8.129-8.129s-8.129 3.633-8.129 8.129V376.64a8.127 8.127 0 008.129 8.129h123.961a8.126 8.126 0 008.129-8.129v-86.667h63.5v84.838zM401.15 178.904L206.487 21.21a8.095 8.095 0 00-10.144-.065L3.101 173.377a8.123 8.123 0 00-1.357 11.413c2.78 3.52 7.901 4.137 11.413 1.349L201.292 37.931l189.623 153.598a8.146 8.146 0 005.113 1.813 8.116 8.116 0 006.316-3.008c2.829-3.488 2.293-8.609-1.194-11.43z" fill="#010002"/></svg>